
<svg width="390" height="844" viewBox="0 0 390 844" xmlns="http://www.w3.org/2000/svg">
  <!-- Fond écran -->
  <rect x="0" y="0" width="390" height="844" rx="44" fill="#F3F4F6" />
  <!-- Barre de statut -->
  <rect x="0" y="0" width="390" height="44" rx="0" fill="rgba(0,0,0,0.03)" />
  <text x="20" y="28" font-size="13" fill="#111827" font-weight="600" text-anchor="start" font-family="SF Pro Display, -apple-system, sans-serif">9:41</text>
  <text x="370" y="28" font-size="11" fill="#6B7280" font-weight="normal" text-anchor="end" font-family="SF Pro Display, -apple-system, sans-serif">●●● ☁ 🔋</text>
  <!-- Contenu -->
  
  <!-- Header -->
  <rect x="0" y="44" width="390" height="60" rx="0" fill="#FFFFFF" />
  <text x="20" y="82" font-size="18" fill="#1E1B4B" font-weight="700" text-anchor="start" font-family="SF Pro Display, -apple-system, sans-serif">AnimeTracker</text>
  <rect x="330" y="58" width="32" height="32" rx="16" fill="#EDE9FE" />
  <text x="346" y="79" font-size="14" fill="#111827" font-weight="normal" text-anchor="middle" font-family="SF Pro Display, -apple-system, sans-serif">🔔</text>
  <rect x="366" y="54" width="8" height="8" rx="4" fill="#EF4444" />

  <!-- Search bar -->
  <rect x="16" y="116" width="358" height="40" rx="20" fill="#F3F4F6" />
  <text x="36" y="141" font-size="13" fill="#9CA3AF" font-weight="normal" text-anchor="start" font-family="SF Pro Display, -apple-system, sans-serif">🔍</text>
  <text x="56" y="141" font-size="13" fill="#9CA3AF" font-weight="normal" text-anchor="start" font-family="SF Pro Display, -apple-system, sans-serif">Rechercher un animé...</text>

  <!-- Section nouveaux épisodes -->
  <text x="16" y="178" font-size="14" fill="#111827" font-weight="700" text-anchor="start" font-family="SF Pro Display, -apple-system, sans-serif">Nouveaux épisodes</text>
  <text x="374" y="178" font-size="12" fill="#8B5CF6" font-weight="normal" text-anchor="end" font-family="SF Pro Display, -apple-system, sans-serif">Voir tout →</text>
  <rect x="16" y="190" width="100" height="140" rx="12" fill="#FFFFFF" />
   <rect x="16" y="190" width="100" height="100" rx="12" fill="#4F46E5" />
   <rect x="16" y="278" width="100" height="12" rx="0" fill="#4F46E5" />
   <text x="66" y="245" font-size="22" fill="rgba(255,255,255,0.4)" font-weight="normal" text-anchor="middle" font-family="SF Pro Display, -apple-system, sans-serif">▶</text>
   <text x="24" y="305" font-size="10" fill="#111827" font-weight="600" text-anchor="start" font-family="SF Pro Display, -apple-system, sans-serif">One Piece</text>
   <text x="24" y="320" font-size="9" fill="#6B7280" font-weight="normal" text-anchor="start" font-family="SF Pro Display, -apple-system, sans-serif">★ 9.0</text>
  <rect x="126" y="190" width="100" height="140" rx="12" fill="#FFFFFF" />
   <rect x="126" y="190" width="100" height="100" rx="12" fill="#DC2626" />
   <rect x="126" y="278" width="100" height="12" rx="0" fill="#DC2626" />
   <text x="176" y="245" font-size="22" fill="rgba(255,255,255,0.4)" font-weight="normal" text-anchor="middle" font-family="SF Pro Display, -apple-system, sans-serif">▶</text>
   <text x="134" y="305" font-size="10" fill="#111827" font-weight="600" text-anchor="start" font-family="SF Pro Display, -apple-system, sans-serif">Demon Slayer</text>
   <text x="134" y="320" font-size="9" fill="#6B7280" font-weight="normal" text-anchor="start" font-family="SF Pro Display, -apple-system, sans-serif">★ 8.7</text>
  <rect x="236" y="190" width="100" height="140" rx="12" fill="#FFFFFF" />
   <rect x="236" y="190" width="100" height="100" rx="12" fill="#059669" />
   <rect x="236" y="278" width="100" height="12" rx="0" fill="#059669" />
   <text x="286" y="245" font-size="22" fill="rgba(255,255,255,0.4)" font-weight="normal" text-anchor="middle" font-family="SF Pro Display, -apple-system, sans-serif">▶</text>
   <text x="244" y="305" font-size="10" fill="#111827" font-weight="600" text-anchor="start" font-family="SF Pro Display, -apple-system, sans-serif">Jujutsu K.</text>
   <text x="244" y="320" font-size="9" fill="#6B7280" font-weight="normal" text-anchor="start" font-family="SF Pro Display, -apple-system, sans-serif">★ 8.8</text>
  <rect x="346" y="190" width="100" height="140" rx="12" fill="#FFFFFF" />
   <rect x="346" y="190" width="100" height="100" rx="12" fill="#D97706" />
   <rect x="346" y="278" width="100" height="12" rx="0" fill="#D97706" />
   <text x="396" y="245" font-size="22" fill="rgba(255,255,255,0.4)" font-weight="normal" text-anchor="middle" font-family="SF Pro Display, -apple-system, sans-serif">▶</text>
   <text x="354" y="305" font-size="10" fill="#111827" font-weight="600" text-anchor="start" font-family="SF Pro Display, -apple-system, sans-serif">AoT</text>
   <text x="354" y="320" font-size="9" fill="#6B7280" font-weight="normal" text-anchor="start" font-family="SF Pro Display, -apple-system, sans-serif">★ 9.1</text>

  <!-- Section populaires -->
  <text x="16" y="352" font-size="14" fill="#111827" font-weight="700" text-anchor="start" font-family="SF Pro Display, -apple-system, sans-serif">Populaires cette semaine</text>
  <text x="374" y="352" font-size="12" fill="#8B5CF6" font-weight="normal" text-anchor="end" font-family="SF Pro Display, -apple-system, sans-serif">Voir tout →</text>
  <rect x="16" y="364" width="100" height="140" rx="12" fill="#FFFFFF" />
   <rect x="16" y="364" width="100" height="100" rx="12" fill="#7C3AED" />
   <rect x="16" y="452" width="100" height="12" rx="0" fill="#7C3AED" />
   <text x="66" y="419" font-size="22" fill="rgba(255,255,255,0.4)" font-weight="normal" text-anchor="middle" font-family="SF Pro Display, -apple-system, sans-serif">▶</text>
   <text x="24" y="479" font-size="10" fill="#111827" font-weight="600" text-anchor="start" font-family="SF Pro Display, -apple-system, sans-serif">Naruto</text>
   <text x="24" y="494" font-size="9" fill="#6B7280" font-weight="normal" text-anchor="start" font-family="SF Pro Display, -apple-system, sans-serif">★ 8.5</text>
  <rect x="126" y="364" width="100" height="140" rx="12" fill="#FFFFFF" />
   <rect x="126" y="364" width="100" height="100" rx="12" fill="#0891B2" />
   <rect x="126" y="452" width="100" height="12" rx="0" fill="#0891B2" />
   <text x="176" y="419" font-size="22" fill="rgba(255,255,255,0.4)" font-weight="normal" text-anchor="middle" font-family="SF Pro Display, -apple-system, sans-serif">▶</text>
   <text x="134" y="479" font-size="10" fill="#111827" font-weight="600" text-anchor="start" font-family="SF Pro Display, -apple-system, sans-serif">HxH</text>
   <text x="134" y="494" font-size="9" fill="#6B7280" font-weight="normal" text-anchor="start" font-family="SF Pro Display, -apple-system, sans-serif">★ 9.1</text>
  <rect x="236" y="364" width="100" height="140" rx="12" fill="#FFFFFF" />
   <rect x="236" y="364" width="100" height="100" rx="12" fill="#BE185D" />
   <rect x="236" y="452" width="100" height="12" rx="0" fill="#BE185D" />
   <text x="286" y="419" font-size="22" fill="rgba(255,255,255,0.4)" font-weight="normal" text-anchor="middle" font-family="SF Pro Display, -apple-system, sans-serif">▶</text>
   <text x="244" y="479" font-size="10" fill="#111827" font-weight="600" text-anchor="start" font-family="SF Pro Display, -apple-system, sans-serif">Bleach</text>
   <text x="244" y="494" font-size="9" fill="#6B7280" font-weight="normal" text-anchor="start" font-family="SF Pro Display, -apple-system, sans-serif">★ 8.2</text>
  <rect x="346" y="364" width="100" height="140" rx="12" fill="#FFFFFF" />
   <rect x="346" y="364" width="100" height="100" rx="12" fill="#92400E" />
   <rect x="346" y="452" width="100" height="12" rx="0" fill="#92400E" />
   <text x="396" y="419" font-size="22" fill="rgba(255,255,255,0.4)" font-weight="normal" text-anchor="middle" font-family="SF Pro Display, -apple-system, sans-serif">▶</text>
   <text x="354" y="479" font-size="10" fill="#111827" font-weight="600" text-anchor="start" font-family="SF Pro Display, -apple-system, sans-serif">FMA:B</text>
   <text x="354" y="494" font-size="9" fill="#6B7280" font-weight="normal" text-anchor="start" font-family="SF Pro Display, -apple-system, sans-serif">★ 9.4</text>

  <!-- Section pour vous -->
  <text x="16" y="525" font-size="14" fill="#111827" font-weight="700" text-anchor="start" font-family="SF Pro Display, -apple-system, sans-serif">Recommandations</text>
  <rect x="16" y="537" width="100" height="140" rx="12" fill="#FFFFFF" />
   <rect x="16" y="537" width="100" height="100" rx="12" fill="#065F46" />
   <rect x="16" y="625" width="100" height="12" rx="0" fill="#065F46" />
   <text x="66" y="592" font-size="22" fill="rgba(255,255,255,0.4)" font-weight="normal" text-anchor="middle" font-family="SF Pro Display, -apple-system, sans-serif">▶</text>
   <text x="24" y="652" font-size="10" fill="#111827" font-weight="600" text-anchor="start" font-family="SF Pro Display, -apple-system, sans-serif">Vinland Saga</text>
   <text x="24" y="667" font-size="9" fill="#6B7280" font-weight="normal" text-anchor="start" font-family="SF Pro Display, -apple-system, sans-serif">★ 9.0</text>
  <rect x="126" y="537" width="100" height="140" rx="12" fill="#FFFFFF" />
   <rect x="126" y="537" width="100" height="100" rx="12" fill="#5B21B6" />
   <rect x="126" y="625" width="100" height="12" rx="0" fill="#5B21B6" />
   <text x="176" y="592" font-size="22" fill="rgba(255,255,255,0.4)" font-weight="normal" text-anchor="middle" font-family="SF Pro Display, -apple-system, sans-serif">▶</text>
   <text x="134" y="652" font-size="10" fill="#111827" font-weight="600" text-anchor="start" font-family="SF Pro Display, -apple-system, sans-serif">Mob Psycho</text>
   <text x="134" y="667" font-size="9" fill="#6B7280" font-weight="normal" text-anchor="start" font-family="SF Pro Display, -apple-system, sans-serif">★ 8.9</text>

  <g color="#8B5CF6">
      <path d="M31,784 L39,776 L47,784 V792 H42 V787 H36 V792 H31 Z" fill="currentColor"/>
      <text x="39" y="798" font-size="9" fill="#8B5CF6" font-weight="600" text-anchor="middle" font-family="SF Pro Display, -apple-system, sans-serif">Accueil</text>
    </g><g color="#9CA3AF">
      <circle cx="116" cy="783" r="5" fill="none" stroke="currentColor" stroke-width="2"/><line x1="120" y1="787" x2="124" y2="791" stroke="currentColor" stroke-width="2" stroke-linecap="round"/>
      <text x="117" y="798" font-size="9" fill="#9CA3AF" font-weight="normal" text-anchor="middle" font-family="SF Pro Display, -apple-system, sans-serif">Recherche</text>
    </g><g color="#9CA3AF">
      <rect x="188" y="776" width="14" height="16" rx="2" fill="none" stroke="currentColor" stroke-width="2"/><line x1="192" y1="781" x2="198" y2="781" stroke="currentColor" stroke-width="1.5"/><line x1="192" y1="784" x2="198" y2="784" stroke="currentColor" stroke-width="1.5"/><line x1="192" y1="787" x2="196" y2="787" stroke="currentColor" stroke-width="1.5"/>
      <text x="195" y="798" font-size="9" fill="#9CA3AF" font-weight="normal" text-anchor="middle" font-family="SF Pro Display, -apple-system, sans-serif">Biblio</text>
    </g><g color="#9CA3AF">
      <path d="M266,778 Q266,776 268,776 H278 Q280,776 280,778 V785 Q280,787 278,787 H271 L267,791 V787 H268 Q266,787 266,785 Z" fill="none" stroke="currentColor" stroke-width="1.5"/>
      <text x="273" y="798" font-size="9" fill="#9CA3AF" font-weight="normal" text-anchor="middle" font-family="SF Pro Display, -apple-system, sans-serif">Messages</text>
    </g><g color="#9CA3AF">
      <circle cx="351" cy="781" r="4" fill="none" stroke="currentColor" stroke-width="2"/><path d="M344,792 Q344,787 351,787 Q358,787 358,792" fill="none" stroke="currentColor" stroke-width="2"/>
      <text x="351" y="798" font-size="9" fill="#9CA3AF" font-weight="normal" text-anchor="middle" font-family="SF Pro Display, -apple-system, sans-serif">Profil</text>
    </g>

  <!-- Barre de navigation -->
  <rect x="0" y="764" width="390" height="80" rx="0" fill="#FFFFFF" />
  <rect x="0" y="764" width="390" height="1" rx="0" fill="#E5E7EB" />
  <!-- Indicateur home -->
  <rect x="135" y="836" width="120" height="4" rx="2" fill="#000" />
</svg>