
<svg width="390" height="844" viewBox="0 0 390 844" xmlns="http://www.w3.org/2000/svg">
  <!-- Fond écran -->
  <rect x="0" y="0" width="390" height="844" rx="44" fill="#F3F4F6" />
  <!-- Barre de statut -->
  <rect x="0" y="0" width="390" height="44" rx="0" fill="rgba(0,0,0,0.03)" />
  <text x="20" y="28" font-size="13" fill="#111827" font-weight="600" text-anchor="start" font-family="SF Pro Display, -apple-system, sans-serif">9:41</text>
  <text x="370" y="28" font-size="11" fill="#6B7280" font-weight="normal" text-anchor="end" font-family="SF Pro Display, -apple-system, sans-serif">●●● ☁ 🔋</text>
  <!-- Contenu -->
  
  <!-- Header -->
  <rect x="0" y="44" width="390" height="56" rx="0" fill="#FFFFFF" />
  <text x="16" y="80" font-size="18" fill="#1E1B4B" font-weight="700" text-anchor="start" font-family="SF Pro Display, -apple-system, sans-serif">Ma bibliothèque</text>

  <!-- Tabs statut -->
  <rect x="0" y="100" width="390" height="44" rx="0" fill="#FFFFFF" />
  <rect x="0" y="143" width="390" height="1" rx="0" fill="#E5E7EB" />
  <rect x="12" y="108" width="70" height="28" rx="14" fill="#8B5CF6"/>
   <text x="47" y="126" font-size="12" fill="#fff" text-anchor="middle" font-family="SF Pro Display, sans-serif" font-weight="600">En cours</text>
  <text x="96" y="126" font-size="13" fill="#6B7280" font-weight="normal" text-anchor="middle" font-family="SF Pro Display, -apple-system, sans-serif">À voir</text>
  <text x="170" y="126" font-size="13" fill="#6B7280" font-weight="normal" text-anchor="middle" font-family="SF Pro Display, -apple-system, sans-serif">Terminés</text>
  <text x="252" y="126" font-size="13" fill="#6B7280" font-weight="normal" text-anchor="middle" font-family="SF Pro Display, -apple-system, sans-serif">Abandonnés</text>

  <text x="16" y="172" font-size="13" fill="#6B7280" font-weight="600" text-anchor="start" font-family="SF Pro Display, -apple-system, sans-serif">En cours (4)</text>

  
  <rect x="16" y="185" width="358" height="100" rx="14" fill="#FFFFFF" />
  <rect x="24" y="195" width="64" height="80" rx="8" fill="#F3F4F6" />
  <text x="56" y="241" font-size="22" fill="#9CA3AF" font-weight="normal" text-anchor="middle" font-family="SF Pro Display, -apple-system, sans-serif">▶</text>
  <text x="100" y="215" font-size="14" fill="#111827" font-weight="700" text-anchor="start" font-family="SF Pro Display, -apple-system, sans-serif">Attack on Titan</text>
  <rect x="100" y="227" width="72" height="20" rx="10" fill="#8B5CF622"/>
   <text x="136" y="241" font-size="11" fill="#8B5CF6" text-anchor="middle" font-family="SF Pro Display, sans-serif" font-weight="600">En cours</text>
  <text x="100" y="261" font-size="11" fill="#6B7280" font-weight="normal" text-anchor="start" font-family="SF Pro Display, -apple-system, sans-serif">24 / 25 épisodes</text>
  <rect x="100" y="273" width="274" height="6" rx="3" fill="#F3F4F6" />
  <rect x="100" y="273" width="278" height="6" rx="3" fill="#8B5CF6" />
  <text x="366" y="221" font-size="18" fill="#9CA3AF" font-weight="normal" text-anchor="end" font-family="SF Pro Display, -apple-system, sans-serif">⋮</text>
  
  <rect x="16" y="298" width="358" height="100" rx="14" fill="#FFFFFF" />
  <rect x="24" y="308" width="64" height="80" rx="8" fill="#F3F4F6" />
  <text x="56" y="354" font-size="22" fill="#9CA3AF" font-weight="normal" text-anchor="middle" font-family="SF Pro Display, -apple-system, sans-serif">▶</text>
  <text x="100" y="328" font-size="14" fill="#111827" font-weight="700" text-anchor="start" font-family="SF Pro Display, -apple-system, sans-serif">Demon Slayer</text>
  <rect x="100" y="340" width="72" height="20" rx="10" fill="#8B5CF622"/>
   <text x="136" y="354" font-size="11" fill="#8B5CF6" text-anchor="middle" font-family="SF Pro Display, sans-serif" font-weight="600">En cours</text>
  <text x="100" y="374" font-size="11" fill="#6B7280" font-weight="normal" text-anchor="start" font-family="SF Pro Display, -apple-system, sans-serif">18 / 26 épisodes</text>
  <rect x="100" y="386" width="274" height="6" rx="3" fill="#F3F4F6" />
  <rect x="100" y="386" width="200" height="6" rx="3" fill="#8B5CF6" />
  <text x="366" y="334" font-size="18" fill="#9CA3AF" font-weight="normal" text-anchor="end" font-family="SF Pro Display, -apple-system, sans-serif">⋮</text>
  
  <rect x="16" y="411" width="358" height="100" rx="14" fill="#FFFFFF" />
  <rect x="24" y="421" width="64" height="80" rx="8" fill="#F3F4F6" />
  <text x="56" y="467" font-size="22" fill="#9CA3AF" font-weight="normal" text-anchor="middle" font-family="SF Pro Display, -apple-system, sans-serif">▶</text>
  <text x="100" y="441" font-size="14" fill="#111827" font-weight="700" text-anchor="start" font-family="SF Pro Display, -apple-system, sans-serif">Jujutsu Kaisen</text>
  <rect x="100" y="453" width="72" height="20" rx="10" fill="#8B5CF622"/>
   <text x="136" y="467" font-size="11" fill="#8B5CF6" text-anchor="middle" font-family="SF Pro Display, sans-serif" font-weight="600">En cours</text>
  <text x="100" y="487" font-size="11" fill="#6B7280" font-weight="normal" text-anchor="start" font-family="SF Pro Display, -apple-system, sans-serif">23 / 24 épisodes</text>
  <rect x="100" y="499" width="274" height="6" rx="3" fill="#F3F4F6" />
  <rect x="100" y="499" width="278" height="6" rx="3" fill="#8B5CF6" />
  <text x="366" y="447" font-size="18" fill="#9CA3AF" font-weight="normal" text-anchor="end" font-family="SF Pro Display, -apple-system, sans-serif">⋮</text>
  
  <rect x="16" y="524" width="358" height="100" rx="14" fill="#FFFFFF" />
  <rect x="24" y="534" width="64" height="80" rx="8" fill="#F3F4F6" />
  <text x="56" y="580" font-size="22" fill="#9CA3AF" font-weight="normal" text-anchor="middle" font-family="SF Pro Display, -apple-system, sans-serif">▶</text>
  <text x="100" y="554" font-size="14" fill="#111827" font-weight="700" text-anchor="start" font-family="SF Pro Display, -apple-system, sans-serif">One Punch Man</text>
  <rect x="100" y="566" width="72" height="20" rx="10" fill="#8B5CF622"/>
   <text x="136" y="580" font-size="11" fill="#8B5CF6" text-anchor="middle" font-family="SF Pro Display, sans-serif" font-weight="600">En cours</text>
  <text x="100" y="600" font-size="11" fill="#6B7280" font-weight="normal" text-anchor="start" font-family="SF Pro Display, -apple-system, sans-serif">8 / 12 épisodes</text>
  <rect x="100" y="612" width="274" height="6" rx="3" fill="#F3F4F6" />
  <rect x="100" y="612" width="194" height="6" rx="3" fill="#8B5CF6" />
  <text x="366" y="560" font-size="18" fill="#9CA3AF" font-weight="normal" text-anchor="end" font-family="SF Pro Display, -apple-system, sans-serif">⋮</text>

  <g color="#9CA3AF">
      <path d="M31,784 L39,776 L47,784 V792 H42 V787 H36 V792 H31 Z" fill="currentColor"/>
      <text x="39" y="798" font-size="9" fill="#9CA3AF" font-weight="normal" text-anchor="middle" font-family="SF Pro Display, -apple-system, sans-serif">Accueil</text>
    </g><g color="#9CA3AF">
      <circle cx="116" cy="783" r="5" fill="none" stroke="currentColor" stroke-width="2"/><line x1="120" y1="787" x2="124" y2="791" stroke="currentColor" stroke-width="2" stroke-linecap="round"/>
      <text x="117" y="798" font-size="9" fill="#9CA3AF" font-weight="normal" text-anchor="middle" font-family="SF Pro Display, -apple-system, sans-serif">Recherche</text>
    </g><g color="#8B5CF6">
      <rect x="188" y="776" width="14" height="16" rx="2" fill="none" stroke="currentColor" stroke-width="2"/><line x1="192" y1="781" x2="198" y2="781" stroke="currentColor" stroke-width="1.5"/><line x1="192" y1="784" x2="198" y2="784" stroke="currentColor" stroke-width="1.5"/><line x1="192" y1="787" x2="196" y2="787" stroke="currentColor" stroke-width="1.5"/>
      <text x="195" y="798" font-size="9" fill="#8B5CF6" font-weight="600" text-anchor="middle" font-family="SF Pro Display, -apple-system, sans-serif">Biblio</text>
    </g><g color="#9CA3AF">
      <path d="M266,778 Q266,776 268,776 H278 Q280,776 280,778 V785 Q280,787 278,787 H271 L267,791 V787 H268 Q266,787 266,785 Z" fill="none" stroke="currentColor" stroke-width="1.5"/>
      <text x="273" y="798" font-size="9" fill="#9CA3AF" font-weight="normal" text-anchor="middle" font-family="SF Pro Display, -apple-system, sans-serif">Messages</text>
    </g><g color="#9CA3AF">
      <circle cx="351" cy="781" r="4" fill="none" stroke="currentColor" stroke-width="2"/><path d="M344,792 Q344,787 351,787 Q358,787 358,792" fill="none" stroke="currentColor" stroke-width="2"/>
      <text x="351" y="798" font-size="9" fill="#9CA3AF" font-weight="normal" text-anchor="middle" font-family="SF Pro Display, -apple-system, sans-serif">Profil</text>
    </g>

  <!-- Barre de navigation -->
  <rect x="0" y="764" width="390" height="80" rx="0" fill="#FFFFFF" />
  <rect x="0" y="764" width="390" height="1" rx="0" fill="#E5E7EB" />
  <!-- Indicateur home -->
  <rect x="135" y="836" width="120" height="4" rx="2" fill="#000" />
</svg>